<svg width="50" height="50" viewBox="0 0 50 50" fill="none" xmlns="http://www.w3.org/2000/svg">
<g id="Group 289270">
<g id="Group">
<path id="Vector" d="M37.1361 37.0892C43.9479 30.2774 43.9479 19.2334 37.1361 12.4216C30.3244 5.60984 19.2803 5.60983 12.4686 12.4216C5.65683 19.2334 5.65683 30.2774 12.4686 37.0892C19.2803 43.9009 30.3244 43.9009 37.1361 37.0892Z" fill="#2E2C2C"/>
<path id="Vector_2" d="M8.67391 31.5705C7.76152 29.4121 7.29903 27.1221 7.29903 24.7574C7.29903 22.3926 7.76155 20.101 8.67389 17.9443L8.67391 17.9442C9.55542 15.86 10.8169 13.9886 12.4252 12.3802C14.0336 10.7718 15.9049 9.51041 17.9892 8.6289L8.67391 31.5705ZM8.67391 31.5705C9.55542 33.6548 10.8169 35.5261 12.4252 37.1345C14.0336 38.7429 15.905 40.0044 17.9893 40.8859L17.9893 40.8859C20.146 41.7982 22.4376 42.2607 24.8024 42.2607C27.1671 42.2607 29.4572 41.7982 31.6156 40.8858C33.6999 40.0043 35.5712 38.7429 37.1796 37.1345C38.7879 35.5261 40.0494 33.6548 40.9309 31.5705L40.9309 31.5705C41.8433 29.4137 42.3058 27.1221 42.3058 24.7574C42.3058 22.3926 41.8433 20.1026 40.9309 17.9442C40.0494 15.8599 38.7879 13.9886 37.1796 12.3802C35.5712 10.7718 33.6998 9.51038 31.6155 8.62887L31.6155 8.62885C29.4588 7.71651 27.1672 7.25398 24.8024 7.25398C22.4393 7.25398 20.1477 7.71648 17.9893 8.62887L8.67391 31.5705ZM8.67391 31.5705L8.5504 31.6227C8.55022 31.6223 8.55004 31.6219 8.54986 31.6215M8.67391 31.5705L8.54986 31.6215M8.54986 31.6215C7.63125 29.4475 7.16403 27.1389 7.16382 24.7574C7.16382 24.7568 7.16382 24.7563 7.16382 24.7558C7.16382 22.3739 7.62935 20.0653 8.54925 17.8915C8.54926 17.8915 8.54926 17.8915 8.54926 17.8915C8.54944 17.8911 8.54962 17.8907 8.54979 17.8903L8.54986 17.8901C9.4375 15.7905 10.7097 13.9051 12.329 12.284C12.3293 12.2837 12.3296 12.2833 12.33 12.283C13.9492 10.6623 15.8361 9.39137 17.9362 8.50347L8.54986 31.6215ZM17.5977 41.8102L17.6496 41.6875C17.6498 41.6876 17.6499 41.6876 17.6501 41.6877L17.5975 7.70141M17.5977 41.8102C17.5977 41.8102 17.5976 41.8102 17.5975 41.8101L17.6495 41.6874C15.4617 40.7621 13.4968 39.4373 11.8096 37.7501C11.8094 37.7499 11.8092 37.7497 11.8089 37.7494C11.8089 37.7494 11.8089 37.7494 11.8088 37.7493C10.1219 36.0622 8.79731 34.0973 7.87205 31.9096L7.87202 31.9096C7.87184 31.9091 7.87166 31.9087 7.87147 31.9083C7.87147 31.9082 7.87146 31.9082 7.87145 31.9082C6.91371 29.642 6.42841 27.2371 6.42841 24.7574C6.42841 24.7568 6.42841 24.7563 6.42841 24.7558C6.42862 22.2762 6.91408 19.8697 7.87205 17.6051C7.87224 17.6047 7.87243 17.6042 7.87262 17.6038L7.74796 17.5511M17.5977 41.8102C15.3936 40.8784 13.4142 39.5424 11.7143 37.8441L11.7142 37.844C10.0158 36.1455 8.67974 34.1645 7.74796 31.9605L7.74793 31.9604C6.78351 29.678 6.29321 27.2536 6.29321 24.7558C6.29321 22.2582 6.78183 19.8337 7.74796 17.5511M17.5977 41.8102C19.8803 42.7764 22.3048 43.265 24.8024 43.265C27.3002 43.265 29.7247 42.7747 32.007 41.8102L32.0071 41.8102C34.2111 40.8784 36.1922 39.5424 37.8906 37.844L37.8908 37.8438C39.589 36.144 40.9249 34.1647 41.8568 31.9606M7.74796 17.5511C7.74799 17.551 7.74801 17.551 7.74804 17.5509L7.87267 17.6037C8.79804 15.4162 10.1227 13.4515 11.8096 11.7646C11.8099 11.7644 11.8101 11.7641 11.8103 11.7639C13.4975 10.0769 15.4624 8.75229 17.6501 7.82701L17.6502 7.82698C17.6504 7.82693 17.6505 7.82687 17.6506 7.82681L17.5975 7.70141M7.74796 17.5511C8.67979 15.3469 10.0158 13.3676 11.714 11.6677C13.4126 9.96749 15.3937 8.63312 17.5975 7.70141M17.5975 7.70141L41.8568 31.9606M41.8568 31.9606C42.823 29.678 43.3116 27.2534 43.3116 24.7558C43.3116 22.2579 42.8213 19.8335 41.8569 17.5512L41.8568 17.5511C40.9251 15.3471 39.5891 13.366 37.8906 11.6676L37.8905 11.6674C36.1907 9.96923 34.2113 8.63323 32.0073 7.70141L41.8568 31.9606ZM37.2748 37.2285C37.2746 37.2287 37.2744 37.2289 37.2742 37.2292C35.6548 38.8483 33.7679 40.1206 31.6681 41.0083C31.6679 41.0084 31.6677 41.0085 31.6675 41.0086L37.2748 37.2285ZM37.2751 12.2833C37.2754 12.2835 37.2756 12.2838 37.2758 12.284C38.8949 13.9033 40.1672 15.7903 41.0549 17.89L37.2751 12.2833ZM17.6507 7.82676L17.5977 7.70133C19.8803 6.7352 22.3048 6.24658 24.8024 6.24658C27.3 6.24658 29.7245 6.7352 32.0071 7.70133L17.6507 7.82676Z" fill="#F5D597" stroke="#F3D396" stroke-width="0.870618"/>
</g>
<g id="Group_2">
<path id="Vector_3" d="M33.8792 33.8332C38.8926 28.8198 38.8926 20.6914 33.8792 15.678C28.8658 10.6646 20.7374 10.6646 15.724 15.678C10.7106 20.6914 10.7106 28.8198 15.724 33.8332C20.7374 38.8466 28.8658 38.8466 33.8792 33.8332Z" fill="#74D4B1"/>
<path id="Vector_4" d="M24.8025 37.662C23.0608 37.662 21.37 37.32 19.7794 36.6472C18.2429 35.9966 16.8622 35.0661 15.6772 33.8811C14.4923 32.6961 13.5618 31.3155 12.9112 29.779C12.2384 28.1884 11.8964 26.4976 11.8964 24.7559C11.8964 23.0142 12.2384 21.3234 12.9112 19.7328C13.5618 18.1963 14.4923 16.8157 15.6772 15.6307C16.8622 14.4457 18.2429 13.5152 19.7794 12.8647C21.37 12.1918 23.0608 11.8499 24.8025 11.8499C26.5442 11.8499 28.235 12.1918 29.8256 12.8647C31.3621 13.5152 32.7427 14.4457 33.9277 15.6307C35.1127 16.8157 36.0432 18.1963 36.6937 19.7328C37.3665 21.3234 37.7085 23.0142 37.7085 24.7559C37.7085 26.4976 37.3665 28.1884 36.6937 29.779C36.0432 31.3155 35.1127 32.6961 33.9277 33.8811C32.7427 35.0661 31.3621 35.9966 29.8256 36.6472C28.235 37.32 26.5442 37.662 24.8025 37.662ZM24.8025 11.9851C23.0783 11.9851 21.4066 12.3223 19.8319 12.9887C18.3113 13.6313 16.9449 14.5523 15.7727 15.7261C14.6004 16.8984 13.6795 18.2647 13.0353 19.7853C12.3688 21.36 12.0316 23.0317 12.0316 24.7559C12.0316 26.4801 12.3688 28.1518 13.0353 29.7265C13.6779 31.2471 14.5988 32.6134 15.7727 33.7857C16.9449 34.958 18.3113 35.8789 19.8319 36.5231C21.4066 37.1896 23.0783 37.5268 24.8025 37.5268C26.5267 37.5268 28.1984 37.1896 29.7731 36.5231C31.2937 35.8805 32.66 34.9596 33.8323 33.7857C35.0045 32.6118 35.9255 31.2471 36.5697 29.7265C37.2361 28.1518 37.5733 26.4801 37.5733 24.7559C37.5733 23.0317 37.2361 21.36 36.5697 19.7853C35.9271 18.2647 35.0061 16.8984 33.8323 15.7261C32.66 14.5539 31.2937 13.6329 29.7731 12.9887C28.1984 12.3223 26.5267 11.9851 24.8025 11.9851Z" fill="black"/>
</g>
<g id="Group_3" style="mix-blend-mode:multiply" opacity="0.1">
<path id="Vector_5" d="M35.4149 17.5282C37.6418 22.4495 36.6731 26.8666 36.0114 28.683C35.2431 30.7953 32.7411 33.8636 30.1326 34.9865C25.2813 37.0766 20.7783 36.3115 17.2663 33.7093C15.5596 32.4448 12.6456 28.8914 12.2098 22.2475C12.0491 23.0587 11.9648 23.8969 11.9648 24.7543C11.9648 31.8451 17.7132 37.5919 24.8025 37.5919C31.8918 37.5919 37.6402 31.8435 37.6402 24.7543C37.6402 22.0741 36.8178 19.5848 35.4133 17.5266L35.4149 17.5282Z" fill="black"/>
</g>
<g id="Group_4" style="mix-blend-mode:multiply" opacity="0.1">
<path id="Vector_6" d="M39.6855 14.5171C42.8079 21.4187 41.9951 27.3707 41.1107 29.9347C39.2418 35.3507 35.9349 38.2026 32.2766 39.7789C25.472 42.7087 19.1574 41.5349 14.2329 37.8876C11.8391 36.1141 7.77191 32.5719 7.14044 21.1387C6.91617 22.276 6.79688 23.4514 6.79688 24.6539C6.79688 34.5983 14.858 42.6594 24.8024 42.6594C34.7467 42.6594 42.8079 34.5983 42.8079 24.6539C42.8079 20.8954 41.6563 17.404 39.6855 14.5171Z" fill="black"/>
</g>
<path id="Vector_7" d="M31.0627 26.2319C31.8788 22.7744 29.7374 19.31 26.2799 18.494C22.8225 17.678 19.3581 19.8193 18.542 23.2768C17.726 26.7343 19.8673 30.1986 23.3248 31.0147C26.7823 31.8307 30.2467 29.6894 31.0627 26.2319Z" fill="black"/>
<path id="Vector_8" d="M24.7113 23.2637C24.0989 23.4386 23.5565 23.9142 23.3975 24.5314C23.2368 25.1469 23.5263 25.877 24.1053 26.1395C24.565 26.3478 25.128 26.2413 25.5416 25.9502C26.0474 25.5939 26.3528 24.9417 26.2255 24.3357C26.0999 23.7297 25.5018 23.2366 24.8863 23.2987" fill="white"/>
<path id="Vector_9" d="M16.11 20.0556C16.4361 21.9198 18.0251 23.4961 19.8924 23.7951C21.7598 24.0942 23.7687 23.0841 24.6324 21.4013C25.4961 19.7184 25.1398 17.49 23.7862 16.1698C20.7466 13.205 15.3592 15.7658 16.11 20.0556Z" fill="white"/>
<path id="Vector_10" d="M30.8922 35.0294C30.6377 35.0294 30.3927 34.8846 30.2798 34.6381C30.1223 34.2993 30.2703 33.8985 30.6091 33.7426C32.1233 33.0411 33.3831 31.8418 34.1577 30.3642C34.331 30.0333 34.7382 29.9061 35.0691 30.0794C35.3999 30.2528 35.5272 30.66 35.3538 30.9909C34.4424 32.7294 32.9584 34.1418 31.1769 34.9673C31.0847 35.0103 30.9892 35.0294 30.8938 35.0294H30.8922Z" fill="white"/>
</g>
</svg>
